{"glyphs":{" ":{"ha":1188,"x_min":0,"x_max":0,"o":""},"!":{"ha":1188,"x_min":0,"x_max":347,"o":"m 0 0 l 0 347 l 347 347 l 347 0 l 0 0 m 0 521 l 0 1389 l 347 1389 l 347 521 l 0 521 z "},"#":{"ha":1188,"x_min":0,"x_max":1215,"o":"m 694 694 l 694 868 l 521 868 l 521 694 l 694 694 m 174 0 l 174 347 l 0 347 l 0 694 l 174 694 l 174 868 l 0 868 l 0 1215 l 174 1215 l 174 1389 l 521 1389 l 521 1215 l 694 1215 l 694 1389 l 1042 1389 l 1042 1215 l 1215 1215 l 1215 868 l 1042 868 l 1042 694 l 1215 694 l 1215 347 l 1042 347 l 1042 0 l 694 0 l 694 347 l 521 347 l 521 0 l 174 0 z "},"$":{"ha":1188,"x_min":0,"x_max":1042,"o":"m 347 -174 l 347 0 l 0 0 l 0 347 l 608 347 q 669 372 643 347 q 694 434 694 397 q 669 495 694 469 q 608 521 643 521 l 174 521 q 50 571 100 521 q 0 694 0 623 l 0 1215 q 50 1337 0 1287 q 174 1389 102 1389 l 347 1389 l 347 1563 l 694 1563 l 694 1389 l 1042 1389 l 1042 1042 l 434 1042 q 372 1016 397 1042 q 347 955 347 990 q 372 892 347 918 q 434 868 397 868 l 868 868 q 990 817 940 868 q 1042 694 1042 765 l 1042 174 q 990 50 1042 100 q 868 0 939 0 l 694 0 l 694 -174 l 347 -174 z "},"&":{"ha":1188,"x_min":0,"x_max":1215,"o":"m 174 0 q 50 50 100 0 q 0 174 0 102 l 0 521 q 50 643 0 593 q 174 694 102 694 q 50 745 100 694 q 0 868 0 796 l 0 1215 q 50 1337 0 1287 q 174 1389 102 1389 l 1042 1389 l 1042 1042 l 434 1042 q 372 1016 397 1042 q 347 955 347 990 q 372 892 347 918 q 434 868 397 868 l 521 868 l 521 521 l 347 521 l 347 434 q 372 372 347 397 q 434 347 397 347 l 694 347 l 694 868 l 1215 868 l 1215 521 l 1042 521 l 1042 174 q 990 50 1042 100 q 868 0 939 0 l 174 0 z "},"+":{"ha":1188,"x_min":0,"x_max":1042,"o":"m 347 174 l 347 521 l 0 521 l 0 868 l 347 868 l 347 1215 l 694 1215 l 694 868 l 1042 868 l 1042 521 l 694 521 l 694 174 l 347 174 z "},",":{"ha":1188,"x_min":0,"x_max":347,"o":"m 174 -174 l 174 0 q 50 50 100 0 q 0 174 0 102 q 50 296 0 245 q 174 347 102 347 q 296 296 245 347 q 347 174 347 244 l 347 -174 l 174 -174 z "},"-":{"ha":1188,"x_min":0,"x_max":1042,"o":"m 0 521 l 0 868 l 1042 868 l 1042 521 l 0 521 z "},".":{"ha":1188,"x_min":0,"x_max":347,"o":"m 0 0 l 0 347 l 347 347 l 347 0 l 0 0 z "},"?":{"ha":1188,"x_min":0,"x_max":1042,"o":"m 347 0 l 347 347 l 694 347 l 694 0 l 347 0 m 347 521 l 347 868 l 608 868 q 669 892 643 868 q 694 955 694 918 q 669 1016 694 990 q 608 1042 643 1042 l 0 1042 l 0 1389 l 868 1389 q 990 1337 940 1389 q 1042 1215 1042 1286 l 1042 694 q 990 571 1042 621 q 868 521 939 521 l 347 521 z "},"A":{"ha":1188,"x_min":0,"x_max":1042,"o":"m 0 0 l 0 868 l 694 868 l 694 955 q 669 1016 694 990 q 608 1042 643 1042 l 0 1042 l 0 1215 q 50 1337 0 1287 q 174 1389 102 1389 l 868 1389 q 990 1337 940 1389 q 1042 1215 1042 1286 l 1042 0 l 694 0 l 694 521 l 347 521 l 347 0 l 0 0 z "},"B":{"ha":1188,"x_min":0,"x_max":1042,"o":"m 608 347 q 669 372 643 347 q 694 434 694 397 q 669 495 694 469 q 608 521 643 521 l 347 521 l 347 347 l 608 347 m 0 0 l 0 868 l 608 868 q 669 892 643 868 q 694 955 694 918 q 669 1016 694 990 q 608 1042 643 1042 l 0 1042 l 0 1389 l 868 1389 q 990 1337 940 1389 q 1042 1215 1042 1286 l 1042 868 q 990 745 1042 795 q 868 694 939 694 q 990 643 940 694 q 1042 521 1042 591 l 1042 174 q 990 50 1042 100 q 868 0 939 0 l 0 0 z "},"C":{"ha":1188,"x_min":0,"x_max":1042,"o":"m 174 0 q 50 50 100 0 q 0 174 0 102 l 0 868 l 347 868 l 347 434 q 372 372 347 397 q 434 347 397 347 l 1042 347 l 1042 174 q 990 50 1042 100 q 868 0 939 0 l 174 0 m 0 1042 l 0 1215 q 50 1337 0 1287 q 174 1389 102 1389 l 868 1389 q 990 1337 940 1389 q 1042 1215 1042 1286 l 1042 1042 l 0 1042 z "},"D":{"ha":1188,"x_min":0,"x_max":1042,"o":"m 0 0 l 0 868 l 347 868 l 347 434 q 372 372 347 397 q 434 347 397 347 l 608 347 q 669 372 643 347 q 694 434 694 397 l 694 955 q 669 1016 694 990 q 608 1042 643 1042 l 0 1042 l 0 1389 l 868 1389 q 990 1337 940 1389 q 1042 1215 1042 1286 l 1042 174 q 990 50 1042 100 q 868 0 939 0 l 0 0 z "},"E":{"ha":1188,"x_min":0,"x_max":1042,"o":"m 0 0 l 0 868 l 868 868 l 868 521 l 347 521 l 347 347 l 1042 347 l 1042 0 l 0 0 m 0 1042 l 0 1389 l 1042 1389 l 1042 1042 l 0 1042 z "},"F":{"ha":1188,"x_min":0,"x_max":1042,"o":"m 0 0 l 0 868 l 868 868 l 868 521 l 347 521 l 347 0 l 0 0 m 0 1042 l 0 1389 l 1042 1389 l 1042 1042 l 0 1042 z "},"G":{"ha":1188,"x_min":0,"x_max":1042,"o":"m 174 0 q 50 50 100 0 q 0 174 0 102 l 0 868 l 347 868 l 347 434 q 372 372 347 397 q 434 347 397 347 l 694 347 l 694 521 l 521 521 l 521 868 l 1042 868 l 1042 0 l 174 0 m 0 1042 l 0 1215 q 50 1337 0 1287 q 174 1389 102 1389 l 1042 1389 l 1042 1042 l 0 1042 z "},"H":{"ha":1188,"x_min":0,"x_max":1042,"o":"m 0 0 l 0 868 l 1042 868 l 1042 0 l 694 0 l 694 521 l 347 521 l 347 0 l 0 0 m 0 1042 l 0 1389 l 347 1389 l 347 1042 l 0 1042 m 694 1042 l 694 1389 l 1042 1389 l 1042 1042 l 694 1042 z "},"I":{"ha":1188,"x_min":0,"x_max":1042,"o":"m 0 0 l 0 347 l 347 347 l 347 868 l 694 868 l 694 347 l 1042 347 l 1042 0 l 0 0 m 0 1042 l 0 1389 l 1042 1389 l 1042 1042 l 0 1042 z "},"J":{"ha":1188,"x_min":0,"x_max":1042,"o":"m 174 0 q 50 50 100 0 q 0 174 0 102 l 0 694 l 347 694 l 347 434 q 372 372 347 397 q 434 347 397 347 l 608 347 q 669 372 643 347 q 694 434 694 397 l 694 868 l 1042 868 l 1042 174 q 990 50 1042 100 q 868 0 939 0 l 174 0 m 347 1042 l 347 1389 l 1042 1389 l 1042 1042 l 347 1042 z "},"K":{"ha":1188,"x_min":0,"x_max":1042,"o":"m 0 0 l 0 868 l 347 868 l 347 0 l 0 0 m 694 0 l 347 694 l 434 868 l 781 868 l 694 694 l 1042 0 l 694 0 m 0 1042 l 0 1389 l 347 1389 l 347 1042 l 0 1042 m 521 1042 l 694 1389 l 1042 1389 l 868 1042 l 521 1042 z "},"L":{"ha":1188,"x_min":0,"x_max":1042,"o":"m 0 0 l 0 868 l 347 868 l 347 347 l 1042 347 l 1042 0 l 0 0 m 0 1042 l 0 1389 l 347 1389 l 347 1042 l 0 1042 z "},"M":{"ha":1188,"x_min":0,"x_max":1389,"o":"m 0 0 l 0 1389 l 434 1389 l 694 868 l 955 1389 l 1389 1389 l 1389 0 l 1042 0 l 1042 868 l 694 174 l 347 868 l 347 0 l 0 0 z "},"N":{"ha":1188,"x_min":0,"x_max":1042,"o":"m 0 0 l 0 1389 l 347 1389 l 694 694 l 694 1389 l 1042 1389 l 1042 0 l 694 0 l 347 694 l 347 0 l 0 0 z "},"O":{"ha":1188,"x_min":0,"x_max":1042,"o":"m 174 0 q 50 50 100 0 q 0 174 0 102 l 0 868 l 347 868 l 347 434 q 372 372 347 397 q 434 347 397 347 l 608 347 q 669 372 643 347 q 694 434 694 397 l 694 868 l 1042 868 l 1042 174 q 990 50 1042 100 q 868 0 939 0 l 174 0 m 0 1042 l 0 1215 q 50 1337 0 1287 q 174 1389 102 1389 l 868 1389 q 990 1337 940 1389 q 1042 1215 1042 1286 l 1042 1042 l 0 1042 z "},"P":{"ha":1188,"x_min":0,"x_max":1042,"o":"m 0 0 l 0 868 l 608 868 q 669 892 643 868 q 694 955 694 918 q 669 1016 694 990 q 608 1042 643 1042 l 0 1042 l 0 1389 l 868 1389 q 990 1337 940 1389 q 1042 1215 1042 1286 l 1042 694 q 990 571 1042 621 q 868 521 939 521 l 347 521 l 347 0 l 0 0 z "},"Q":{"ha":1188,"x_min":0,"x_max":1042,"o":"m 347 -347 l 347 0 l 174 0 q 50 50 100 0 q 0 174 0 102 l 0 868 l 347 868 l 347 434 q 372 372 347 397 q 434 347 397 347 l 608 347 q 669 372 643 347 q 694 434 694 397 l 694 955 q 669 1016 694 990 q 608 1042 643 1042 l 0 1042 l 0 1215 q 50 1337 0 1287 q 174 1389 102 1389 l 868 1389 q 990 1337 940 1389 q 1042 1215 1042 1286 l 1042 174 q 990 50 1042 100 q 868 0 939 0 l 694 0 l 694 -347 l 347 -347 z "},"R":{"ha":1188,"x_min":0,"x_max":1042,"o":"m 0 0 l 0 868 l 608 868 q 669 892 643 868 q 694 955 694 918 q 669 1016 694 990 q 608 1042 643 1042 l 0 1042 l 0 1389 l 868 1389 q 990 1337 940 1389 q 1042 1215 1042 1286 l 1042 694 q 990 571 1042 621 q 868 521 939 521 l 781 521 l 1042 0 l 694 0 l 434 521 l 347 521 l 347 0 l 0 0 z "},"S":{"ha":1188,"x_min":0,"x_max":1215,"o":"m 0 0 l 0 347 l 608 347 q 669 372 643 347 q 694 434 694 397 q 669 495 694 469 q 608 521 643 521 l 174 521 q 50 571 100 521 q 0 694 0 623 l 0 868 l 868 868 q 990 817 940 868 q 1042 694 1042 765 l 1042 174 q 990 50 1042 100 q 868 0 939 0 l 0 0 m 0 1042 l 0 1215 q 50 1337 0 1287 q 174 1389 102 1389 l 1215 1389 l 1215 1042 l 0 1042 z "},"T":{"ha":1188,"x_min":0,"x_max":1042,"o":"m 347 0 l 347 868 l 694 868 l 694 0 l 347 0 m 0 1042 l 0 1389 l 1042 1389 l 1042 1042 l 0 1042 z "},"U":{"ha":1188,"x_min":0,"x_max":1042,"o":"m 174 0 q 50 50 100 0 q 0 174 0 102 l 0 868 l 347 868 l 347 434 q 372 372 347 397 q 434 347 397 347 l 608 347 q 669 372 643 347 q 694 434 694 397 l 694 868 l 1042 868 l 1042 174 q 990 50 1042 100 q 868 0 939 0 l 174 0 m 0 1042 l 0 1389 l 347 1389 l 347 1042 l 0 1042 m 694 1042 l 694 1389 l 1042 1389 l 1042 1042 l 694 1042 z "},"V":{"ha":1188,"x_min":0,"x_max":1042,"o":"m 434 0 l 0 868 l 0 1389 l 347 1389 l 347 868 l 521 521 l 694 868 l 694 1389 l 1042 1389 l 1042 868 l 608 0 l 434 0 z "},"W":{"ha":1188,"x_min":0,"x_max":1389,"o":"m 0 0 l 0 1389 l 347 1389 l 347 521 l 608 1042 l 781 1042 l 1042 521 l 1042 1389 l 1389 1389 l 1389 0 l 955 0 l 694 521 l 434 0 l 0 0 z "},"X":{"ha":1188,"x_min":0,"x_max":1042,"o":"m 0 0 l 347 694 l 0 1389 l 347 1389 l 521 1042 l 694 1389 l 1042 1389 l 694 694 l 1042 0 l 694 0 l 521 347 l 347 0 l 0 0 z "},"Y":{"ha":1188,"x_min":0,"x_max":1042,"o":"m 347 0 l 347 694 l 0 1389 l 347 1389 l 521 1042 l 694 1389 l 1042 1389 l 694 694 l 694 0 l 347 0 z "},"Z":{"ha":1188,"x_min":0,"x_max":1042,"o":"m 0 0 l 434 868 l 781 868 l 521 347 l 1042 347 l 1042 0 l 0 0 m 0 1042 l 0 1389 l 1042 1389 l 868 1042 l 0 1042 z "},"a":{"ha":1188,"x_min":0,"x_max":1042,"o":"m 0 0 l 0 868 l 694 868 l 694 955 q 669 1016 694 990 q 608 1042 643 1042 l 0 1042 l 0 1215 q 50 1337 0 1287 q 174 1389 102 1389 l 868 1389 q 990 1337 940 1389 q 1042 1215 1042 1286 l 1042 0 l 694 0 l 694 521 l 347 521 l 347 0 l 0 0 z "},"b":{"ha":1188,"x_min":0,"x_max":1042,"o":"m 608 347 q 669 372 643 347 q 694 434 694 397 q 669 495 694 469 q 608 521 643 521 l 347 521 l 347 347 l 608 347 m 0 0 l 0 868 l 608 868 q 669 892 643 868 q 694 955 694 918 q 669 1016 694 990 q 608 1042 643 1042 l 0 1042 l 0 1389 l 868 1389 q 990 1337 940 1389 q 1042 1215 1042 1286 l 1042 868 q 990 745 1042 795 q 868 694 939 694 q 990 643 940 694 q 1042 521 1042 591 l 1042 174 q 990 50 1042 100 q 868 0 939 0 l 0 0 z "},"c":{"ha":1188,"x_min":0,"x_max":1042,"o":"m 174 0 q 50 50 100 0 q 0 174 0 102 l 0 868 l 347 868 l 347 434 q 372 372 347 397 q 434 347 397 347 l 1042 347 l 1042 174 q 990 50 1042 100 q 868 0 939 0 l 174 0 m 0 1042 l 0 1215 q 50 1337 0 1287 q 174 1389 102 1389 l 868 1389 q 990 1337 940 1389 q 1042 1215 1042 1286 l 1042 1042 l 0 1042 z "},"d":{"ha":1188,"x_min":0,"x_max":1042,"o":"m 0 0 l 0 868 l 347 868 l 347 434 q 372 372 347 397 q 434 347 397 347 l 608 347 q 669 372 643 347 q 694 434 694 397 l 694 955 q 669 1016 694 990 q 608 1042 643 1042 l 0 1042 l 0 1389 l 868 1389 q 990 1337 940 1389 q 1042 1215 1042 1286 l 1042 174 q 990 50 1042 100 q 868 0 939 0 l 0 0 z "},"e":{"ha":1188,"x_min":0,"x_max":1042,"o":"m 0 0 l 0 868 l 868 868 l 868 521 l 347 521 l 347 347 l 1042 347 l 1042 0 l 0 0 m 0 1042 l 0 1389 l 1042 1389 l 1042 1042 l 0 1042 z "},"f":{"ha":1188,"x_min":0,"x_max":1042,"o":"m 0 0 l 0 868 l 868 868 l 868 521 l 347 521 l 347 0 l 0 0 m 0 1042 l 0 1389 l 1042 1389 l 1042 1042 l 0 1042 z "},"g":{"ha":1188,"x_min":0,"x_max":1042,"o":"m 174 0 q 50 50 100 0 q 0 174 0 102 l 0 868 l 347 868 l 347 434 q 372 372 347 397 q 434 347 397 347 l 694 347 l 694 521 l 521 521 l 521 868 l 1042 868 l 1042 0 l 174 0 m 0 1042 l 0 1215 q 50 1337 0 1287 q 174 1389 102 1389 l 1042 1389 l 1042 1042 l 0 1042 z "},"h":{"ha":1188,"x_min":0,"x_max":1042,"o":"m 0 0 l 0 868 l 1042 868 l 1042 0 l 694 0 l 694 521 l 347 521 l 347 0 l 0 0 m 0 1042 l 0 1389 l 347 1389 l 347 1042 l 0 1042 m 694 1042 l 694 1389 l 1042 1389 l 1042 1042 l 694 1042 z "},"i":{"ha":1188,"x_min":0,"x_max":1042,"o":"m 0 0 l 0 347 l 347 347 l 347 868 l 694 868 l 694 347 l 1042 347 l 1042 0 l 0 0 m 0 1042 l 0 1389 l 1042 1389 l 1042 1042 l 0 1042 z "},"j":{"ha":1188,"x_min":0,"x_max":1042,"o":"m 174 0 q 50 50 100 0 q 0 174 0 102 l 0 694 l 347 694 l 347 434 q 372 372 347 397 q 434 347 397 347 l 608 347 q 669 372 643 347 q 694 434 694 397 l 694 868 l 1042 868 l 1042 174 q 990 50 1042 100 q 868 0 939 0 l 174 0 m 347 1042 l 347 1389 l 1042 1389 l 1042 1042 l 347 1042 z "},"k":{"ha":1188,"x_min":0,"x_max":1042,"o":"m 0 0 l 0 868 l 347 868 l 347 0 l 0 0 m 694 0 l 347 694 l 434 868 l 781 868 l 694 694 l 1042 0 l 694 0 m 0 1042 l 0 1389 l 347 1389 l 347 1042 l 0 1042 m 521 1042 l 694 1389 l 1042 1389 l 868 1042 l 521 1042 z "},"l":{"ha":1188,"x_min":0,"x_max":1042,"o":"m 0 0 l 0 868 l 347 868 l 347 347 l 1042 347 l 1042 0 l 0 0 m 0 1042 l 0 1389 l 347 1389 l 347 1042 l 0 1042 z "},"m":{"ha":1188,"x_min":0,"x_max":1389,"o":"m 0 0 l 0 1389 l 434 1389 l 694 868 l 955 1389 l 1389 1389 l 1389 0 l 1042 0 l 1042 868 l 694 174 l 347 868 l 347 0 l 0 0 z "},"n":{"ha":1188,"x_min":0,"x_max":1042,"o":"m 0 0 l 0 1389 l 347 1389 l 694 694 l 694 1389 l 1042 1389 l 1042 0 l 694 0 l 347 694 l 347 0 l 0 0 z "},"o":{"ha":1188,"x_min":0,"x_max":1042,"o":"m 174 0 q 50 50 100 0 q 0 174 0 102 l 0 868 l 347 868 l 347 434 q 372 372 347 397 q 434 347 397 347 l 608 347 q 669 372 643 347 q 694 434 694 397 l 694 868 l 1042 868 l 1042 174 q 990 50 1042 100 q 868 0 939 0 l 174 0 m 0 1042 l 0 1215 q 50 1337 0 1287 q 174 1389 102 1389 l 868 1389 q 990 1337 940 1389 q 1042 1215 1042 1286 l 1042 1042 l 0 1042 z "},"p":{"ha":1188,"x_min":0,"x_max":1042,"o":"m 0 0 l 0 868 l 608 868 q 669 892 643 868 q 694 955 694 918 q 669 1016 694 990 q 608 1042 643 1042 l 0 1042 l 0 1389 l 868 1389 q 990 1337 940 1389 q 1042 1215 1042 1286 l 1042 694 q 990 571 1042 621 q 868 521 939 521 l 347 521 l 347 0 l 0 0 z "},"q":{"ha":1188,"x_min":0,"x_max":1042,"o":"m 347 -347 l 347 0 l 174 0 q 50 50 100 0 q 0 174 0 102 l 0 868 l 347 868 l 347 434 q 372 372 347 397 q 434 347 397 347 l 608 347 q 669 372 643 347 q 694 434 694 397 l 694 955 q 669 1016 694 990 q 608 1042 643 1042 l 0 1042 l 0 1215 q 50 1337 0 1287 q 174 1389 102 1389 l 868 1389 q 990 1337 940 1389 q 1042 1215 1042 1286 l 1042 174 q 990 50 1042 100 q 868 0 939 0 l 694 0 l 694 -347 l 347 -347 z "},"r":{"ha":1188,"x_min":0,"x_max":1042,"o":"m 0 0 l 0 868 l 608 868 q 669 892 643 868 q 694 955 694 918 q 669 1016 694 990 q 608 1042 643 1042 l 0 1042 l 0 1389 l 868 1389 q 990 1337 940 1389 q 1042 1215 1042 1286 l 1042 694 q 990 571 1042 621 q 868 521 939 521 l 781 521 l 1042 0 l 694 0 l 434 521 l 347 521 l 347 0 l 0 0 z "},"s":{"ha":1188,"x_min":0,"x_max":1215,"o":"m 0 0 l 0 347 l 608 347 q 669 372 643 347 q 694 434 694 397 q 669 495 694 469 q 608 521 643 521 l 174 521 q 50 571 100 521 q 0 694 0 623 l 0 868 l 868 868 q 990 817 940 868 q 1042 694 1042 765 l 1042 174 q 990 50 1042 100 q 868 0 939 0 l 0 0 m 0 1042 l 0 1215 q 50 1337 0 1287 q 174 1389 102 1389 l 1215 1389 l 1215 1042 l 0 1042 z "},"t":{"ha":1188,"x_min":0,"x_max":1042,"o":"m 347 0 l 347 868 l 694 868 l 694 0 l 347 0 m 0 1042 l 0 1389 l 1042 1389 l 1042 1042 l 0 1042 z "},"u":{"ha":1188,"x_min":0,"x_max":1042,"o":"m 174 0 q 50 50 100 0 q 0 174 0 102 l 0 868 l 347 868 l 347 434 q 372 372 347 397 q 434 347 397 347 l 608 347 q 669 372 643 347 q 694 434 694 397 l 694 868 l 1042 868 l 1042 174 q 990 50 1042 100 q 868 0 939 0 l 174 0 m 0 1042 l 0 1389 l 347 1389 l 347 1042 l 0 1042 m 694 1042 l 694 1389 l 1042 1389 l 1042 1042 l 694 1042 z "},"v":{"ha":1188,"x_min":0,"x_max":1042,"o":"m 434 0 l 0 868 l 0 1389 l 347 1389 l 347 868 l 521 521 l 694 868 l 694 1389 l 1042 1389 l 1042 868 l 608 0 l 434 0 z "},"w":{"ha":1188,"x_min":0,"x_max":1389,"o":"m 0 0 l 0 1389 l 347 1389 l 347 521 l 608 1042 l 781 1042 l 1042 521 l 1042 1389 l 1389 1389 l 1389 0 l 955 0 l 694 521 l 434 0 l 0 0 z "},"x":{"ha":1188,"x_min":0,"x_max":1042,"o":"m 0 0 l 347 694 l 0 1389 l 347 1389 l 521 1042 l 694 1389 l 1042 1389 l 694 694 l 1042 0 l 694 0 l 521 347 l 347 0 l 0 0 z "},"y":{"ha":1188,"x_min":0,"x_max":1042,"o":"m 347 0 l 347 694 l 0 1389 l 347 1389 l 521 1042 l 694 1389 l 1042 1389 l 694 694 l 694 0 l 347 0 z "},"z":{"ha":1188,"x_min":0,"x_max":1042,"o":"m 0 0 l 434 868 l 781 868 l 521 347 l 1042 347 l 1042 0 l 0 0 m 0 1042 l 0 1389 l 1042 1389 l 868 1042 l 0 1042 z "}}}
